<?xml version="1.0" encoding="utf-8"?>
<!-- Generator: Adobe Illustrator 28.0.0, SVG Export Plug-In . SVG Version: 6.00 Build 0)  -->
<svg version="1.1" id="Layer_1" xmlns="http://www.w3.org/2000/svg" xmlns:xlink="http://www.w3.org/1999/xlink" x="0px" y="0px"
	 viewBox="0 0 40 40" style="enable-background:new 0 0 40 40;" xml:space="preserve">
<style type="text/css">
	.st0{fill:#CA9762;}
	.st1{fill:#FFFFFF;}
</style>
<path class="st0" d="M19.7,40c11,0,20-9,20-20s-9-20-20-20s-20,9-20,20S8.7,40,19.7,40z"/>
<g>
	<path class="st1" d="M2.3,13.7L2.3,13.7L2.3,13.7C2.3,13.6,2.3,13.6,2.3,13.7z M2.3,13.6L2.3,13.6C2.3,13.6,2.3,13.6,2.3,13.6
		L2.3,13.6z M37.5,14.9c-0.7-1.1-1.6-2.1-2.7-2.8c-1.2-0.8-2.5-1.3-4-1.6c-0.5-0.1-1-0.1-1.5-0.1c-0.9,0-1.8,0.1-2.8,0.4
		c-1.9,0.6-3.7,1.6-5.4,3.2l1.4,1.4c0.2-0.1,0.3-0.3,0.5-0.4c0.5-0.4,1-0.9,1.6-1.2c1.4-1,2.9-1.5,4.5-1.5c0.9,0,1.9,0.2,2.8,0.5
		c2.1,0.8,3.7,2.4,4.4,4.6c0.8,2.3,0.5,5-0.9,7.1c-1.2,1.9-3,2.9-5.4,3.1c-0.3,0-0.7,0-1,0c-2.3,0-4.1-0.7-5.5-2.1
		c-0.7-0.6-1.3-1.3-1.9-2l-1.5,1.5c0.4,0.4,0.7,0.7,1,1.1c2,2,4.1,3.1,6.6,3.4c0.4,0,0.8,0.1,1.2,0.1c2.1,0,4.1-0.7,5.8-1.9
		c1.7-1.2,2.9-2.9,3.5-4.9C39.3,20.2,38.9,17.2,37.5,14.9z M37.5,14.9c-0.7-1.1-1.6-2.1-2.7-2.8c-1.2-0.8-2.5-1.3-4-1.6
		c-0.5-0.1-1-0.1-1.5-0.1c-0.9,0-1.8,0.1-2.8,0.4c-1.9,0.6-3.7,1.6-5.4,3.2l1.4,1.4c0.2-0.1,0.3-0.3,0.5-0.4c0.5-0.4,1-0.9,1.6-1.2
		c1.4-1,2.9-1.5,4.5-1.5c0.9,0,1.9,0.2,2.8,0.5c2.1,0.8,3.7,2.4,4.4,4.6c0.8,2.3,0.5,5-0.9,7.1c-1.2,1.9-3,2.9-5.4,3.1
		c-0.3,0-0.7,0-1,0c-2.3,0-4.1-0.7-5.5-2.1c-0.7-0.6-1.3-1.3-1.9-2l-1.5,1.5c0.4,0.4,0.7,0.7,1,1.1c2,2,4.1,3.1,6.6,3.4
		c0.4,0,0.8,0.1,1.2,0.1c2.1,0,4.1-0.7,5.8-1.9c1.7-1.2,2.9-2.9,3.5-4.9C39.3,20.2,38.9,17.2,37.5,14.9z M33.9,18.9
		c-0.4-1.5-1.6-2.9-3-3.4c-0.5-0.2-1.1-0.3-1.7-0.3c-1.7,0-3.4,0.8-4.6,2.1l1.5,1.4c0,0,0.1-0.1,0.1-0.1c0.3-0.2,0.5-0.5,0.8-0.7
		c0.6-0.5,1.3-0.7,2-0.7c0.1,0,0.2,0,0.3,0c1.5,0.1,2.5,1,2.7,2.5c0.2,1.3-0.5,2.5-1.7,3c-0.4,0.2-0.9,0.3-1.3,0.3
		c-0.6,0-1.2-0.2-1.8-0.5c-1-0.6-1.9-1.4-2.7-2.2c-1.1-1.1-2.2-2.3-3.3-3.4c-0.9-0.9-1.8-1.8-2.7-2.7c-1.9-1.9-3.8-3-5.9-3.5
		c-0.9-0.2-1.7-0.3-2.6-0.3c-2.8,0-5.2,1.1-7.2,3.3c-1.3,1.5-2.1,3.1-2.4,4.9c-0.3,1.7,0,3.6,0.8,5.4C2,25.4,2.9,26.6,4,27.6
		c1.1,0.9,2.5,1.6,4.1,1.9c0.8,0.2,1.6,0.2,2.3,0.2c2.7,0,5.2-1,7.4-3c0.2-0.2,0.4-0.3,0.6-0.5c0,0,0.1-0.1,0.1-0.1l-1.3-1.4
		l-0.2,0.2c-1.9,1.7-3.7,2.6-5.6,2.8c-0.3,0-0.5,0-0.8,0c-4,0-7.4-3-7.8-6.9c-0.2-2.2,0.4-4.4,1.8-6c1.3-1.6,3.2-2.5,5.5-2.6
		c0.2,0,0.3,0,0.5,0c2.2,0,4.3,0.9,6.1,2.7c1.3,1.3,2.5,2.5,3.7,3.8c1.1,1.1,2.3,2.3,3.4,3.5c1,1,2.1,2.1,3.6,2.4
		c0.7,0.2,1.3,0.3,1.9,0.3c1.4,0,2.5-0.5,3.4-1.5C33.9,22,34.3,20.4,33.9,18.9z M33.9,18.9c-0.4-1.5-1.6-2.9-3-3.4
		c-0.5-0.2-1.1-0.3-1.7-0.3c-1.7,0-3.4,0.8-4.6,2.1l1.5,1.4c0,0,0.1-0.1,0.1-0.1c0.3-0.2,0.5-0.5,0.8-0.7c0.6-0.5,1.3-0.7,2-0.7
		c0.1,0,0.2,0,0.3,0c1.5,0.1,2.5,1,2.7,2.5c0.2,1.3-0.5,2.5-1.7,3c-0.4,0.2-0.9,0.3-1.3,0.3c-0.6,0-1.2-0.2-1.8-0.5
		c-1-0.6-1.9-1.4-2.7-2.2c-1.1-1.1-2.2-2.3-3.3-3.4c-0.9-0.9-1.8-1.8-2.7-2.7c-1.9-1.9-3.8-3-5.9-3.5c-0.9-0.2-1.7-0.3-2.6-0.3
		c-2.8,0-5.2,1.1-7.2,3.3c-1.3,1.5-2.1,3.1-2.4,4.9c-0.3,1.7,0,3.6,0.8,5.4C2,25.4,2.9,26.6,4,27.6c1.1,0.9,2.5,1.6,4.1,1.9
		c0.8,0.2,1.6,0.2,2.3,0.2c2.7,0,5.2-1,7.4-3c0.2-0.2,0.4-0.3,0.6-0.5c0,0,0.1-0.1,0.1-0.1l-1.3-1.4l-0.2,0.2
		c-1.9,1.7-3.7,2.6-5.6,2.8c-0.3,0-0.5,0-0.8,0c-4,0-7.4-3-7.8-6.9c-0.2-2.2,0.4-4.4,1.8-6c1.3-1.6,3.2-2.5,5.5-2.6
		c0.2,0,0.3,0,0.5,0c2.2,0,4.3,0.9,6.1,2.7c1.3,1.3,2.5,2.5,3.7,3.8c1.1,1.1,2.3,2.3,3.4,3.5c1,1,2.1,2.1,3.6,2.4
		c0.7,0.2,1.3,0.3,1.9,0.3c1.4,0,2.5-0.5,3.4-1.5C33.9,22,34.3,20.4,33.9,18.9z M13.9,20.9L13.9,20.9 M31.5,20c0-1.1-0.8-2-1.9-2.2
		c-0.2,0-0.4-0.1-0.5-0.1c-0.7,0-1.4,0.3-2.1,0.9c0,0,0,0-0.1,0.1c0.1,0.1,0.2,0.2,0.3,0.3c0.5-0.4,1-0.7,1.8-0.7c0.1,0,0.1,0,0.2,0
		c1,0.1,1.7,0.8,1.7,1.8v0c0,0.9-0.7,1.7-1.7,1.8c-0.1,0-0.1,0-0.2,0c-0.7,0-1.3-0.4-1.8-0.7c-0.1,0.1-0.3,0.3-0.3,0.3
		c0,0,0,0,0.1,0.1c0.7,0.6,1.4,0.9,2.1,0.9c0,0,0,0,0,0c0.2,0,0.4,0,0.5-0.1c1.1-0.2,1.8-1.1,1.9-2.2C31.5,20.1,31.5,20.1,31.5,20
		L31.5,20C31.5,20,31.5,20,31.5,20z M29.1,22.5c0.2,0,0.4,0,0.6-0.1c1.1-0.2,2-1.2,2-2.4c0,0,0,0,0-0.1v0c0,0,0,0,0-0.1
		c0-1.2-0.9-2.1-2-2.4c-0.2,0-0.4-0.1-0.6-0.1c-0.8,0-1.5,0.3-2.2,0.9c0,0,0,0-0.1,0.1l-0.2,0.1l0.6,0.6l0.1-0.1
		c0.4-0.3,0.9-0.7,1.7-0.7c0.1,0,0.1,0,0.2,0c0.8,0.1,1.5,0.7,1.5,1.6v0c0,0.8-0.6,1.5-1.5,1.6c-0.1,0-0.1,0-0.2,0
		c-0.7,0-1.3-0.4-1.7-0.7l-0.1-0.1l-0.6,0.6l0.2,0.1c0,0,0,0,0.1,0.1C27.6,22.2,28.3,22.5,29.1,22.5L29.1,22.5z M31.5,20
		c0-1.1-0.8-2-1.9-2.2c-0.2,0-0.4-0.1-0.5-0.1c-0.7,0-1.4,0.3-2.1,0.9c0,0,0,0-0.1,0.1c0.1,0.1,0.2,0.2,0.3,0.3
		c0.5-0.4,1-0.7,1.8-0.7c0.1,0,0.1,0,0.2,0c1,0.1,1.7,0.8,1.7,1.8v0c0,0.9-0.7,1.7-1.7,1.8c-0.1,0-0.1,0-0.2,0
		c-0.7,0-1.3-0.4-1.8-0.7c-0.1,0.1-0.3,0.3-0.3,0.3c0,0,0,0,0.1,0.1c0.7,0.6,1.4,0.9,2.1,0.9c0,0,0,0,0,0c0.2,0,0.4,0,0.5-0.1
		c1.1-0.2,1.8-1.1,1.9-2.2C31.5,20.1,31.5,20.1,31.5,20L31.5,20C31.5,20,31.5,20,31.5,20z"/>
	<path class="st1" d="M10.4,24.1c-2.2,0-4.1-1.8-4.1-4.1S8.2,16,10.4,16s4.1,1.8,4.1,4.1S12.7,24.1,10.4,24.1z M10.4,17.2
		c-1.6,0-2.9,1.3-2.9,2.9S8.8,23,10.4,23s2.9-1.3,2.9-2.9S12,17.2,10.4,17.2z"/>
</g>
</svg>
