<?xml version="1.0" encoding="utf-8"?>
<!-- Generator: Adobe Illustrator 28.0.0, SVG Export Plug-In . SVG Version: 6.00 Build 0)  -->
<svg version="1.1" id="Layer_1" xmlns="http://www.w3.org/2000/svg" xmlns:xlink="http://www.w3.org/1999/xlink" x="0px" y="0px"
	 viewBox="0 0 257 90" style="enable-background:new 0 0 257 90;" xml:space="preserve">
<style type="text/css">
	.st0{clip-path:url(#SVGID_00000163760639162228496670000014297829240673714569_);}
	.st1{fill:#CA9762;}
</style>
<g>
	<defs>
		<rect id="SVGID_1_" y="-0.8" width="256.9" height="90"/>
	</defs>
	<clipPath id="SVGID_00000178922214160252667100000014367611650714174901_">
		<use xlink:href="#SVGID_1_"  style="overflow:visible;"/>
	</clipPath>
	<g style="clip-path:url(#SVGID_00000178922214160252667100000014367611650714174901_);">
		<path class="st1" d="M5.4,31.9L5.4,31.9L5.4,31.9C5.4,31.9,5.4,31.9,5.4,31.9z M5.4,31.9L5.4,31.9C5.4,31.9,5.4,31.9,5.4,31.9
			L5.4,31.9z M73.2,34.3c-1.3-2.2-3.1-4-5.2-5.4c-2.3-1.5-4.9-2.6-7.8-3.1c-0.9-0.2-1.9-0.3-2.8-0.3c-1.7,0-3.5,0.3-5.3,0.8
			c-3.7,1.1-7.1,3.2-10.3,6.2l2.8,2.8c0.3-0.3,0.7-0.5,1-0.8c1-0.8,2-1.6,3.1-2.4c2.8-1.9,5.7-2.8,8.7-2.8c1.8,0,3.6,0.3,5.4,1
			c4.1,1.5,7.1,4.7,8.5,8.8c1.5,4.5,0.9,9.6-1.7,13.7c-2.3,3.6-5.9,5.7-10.3,6.1C58.6,59,57.9,59,57.3,59c-4.3,0-7.8-1.3-10.7-4
			c-1.3-1.2-2.5-2.5-3.7-3.8L40.1,54c0.7,0.7,1.4,1.4,2,2.1c3.8,3.9,8,6,12.8,6.6c0.8,0.1,1.6,0.1,2.4,0.1c4,0,8-1.3,11.2-3.6
			c3.3-2.4,5.6-5.6,6.8-9.5C76.7,44.5,76,38.8,73.2,34.3z M73.2,34.3c-1.3-2.2-3.1-4-5.2-5.4c-2.3-1.5-4.9-2.6-7.8-3.1
			c-0.9-0.2-1.9-0.3-2.8-0.3c-1.7,0-3.5,0.3-5.3,0.8c-3.7,1.1-7.1,3.2-10.3,6.2l2.8,2.8c0.3-0.3,0.7-0.5,1-0.8c1-0.8,2-1.6,3.1-2.4
			c2.8-1.9,5.7-2.8,8.7-2.8c1.8,0,3.6,0.3,5.4,1c4.1,1.5,7.1,4.7,8.5,8.8c1.5,4.5,0.9,9.6-1.7,13.7c-2.3,3.6-5.9,5.7-10.3,6.1
			C58.6,59,57.9,59,57.3,59c-4.3,0-7.8-1.3-10.7-4c-1.3-1.2-2.5-2.5-3.7-3.8L40.1,54c0.7,0.7,1.4,1.4,2,2.1c3.8,3.9,8,6,12.8,6.6
			c0.8,0.1,1.6,0.1,2.4,0.1c4,0,8-1.3,11.2-3.6c3.3-2.4,5.6-5.6,6.8-9.5C76.7,44.5,76,38.8,73.2,34.3z M66.4,42
			c-0.8-3-3.1-5.5-5.9-6.5c-1-0.4-2.1-0.5-3.3-0.5c-3.2,0-6.5,1.5-8.9,4l2.9,2.6c0.1-0.1,0.1-0.1,0.2-0.2c0.5-0.4,1.1-1,1.6-1.4
			c1.2-0.9,2.5-1.4,3.9-1.4c0.2,0,0.4,0,0.6,0c2.9,0.2,4.8,2,5.2,4.9c0.4,2.5-1,4.8-3.3,5.7c-0.8,0.3-1.7,0.5-2.5,0.5
			c-1.2,0-2.4-0.4-3.4-1c-1.9-1.2-3.6-2.7-5.1-4.2c-2.2-2.1-4.3-4.4-6.4-6.5c-1.7-1.7-3.4-3.5-5.1-5.2c-3.6-3.6-7.3-5.8-11.4-6.7
			c-1.7-0.4-3.3-0.6-4.9-0.6c-5.4,0-10,2.1-13.8,6.3c-2.6,2.9-4.1,6.1-4.7,9.4c-0.5,3.3,0,6.9,1.5,10.5c1.2,2.9,2.9,5.2,5,7
			c2.2,1.8,4.8,3,7.9,3.7c1.5,0.3,3,0.5,4.5,0.5c5.1,0,9.9-1.9,14.3-5.8c0.4-0.3,0.7-0.7,1.1-1c0.1-0.1,0.1-0.1,0.2-0.2l-2.6-2.7
			l-0.5,0.4c-3.6,3.3-7.1,5-10.8,5.3c-0.5,0.1-1,0.1-1.6,0.1c-7.8,0-14.3-5.7-15-13.3c-0.4-4.2,0.9-8.5,3.5-11.6
			c2.6-3,6.2-4.8,10.5-5c0.3,0,0.6,0,1,0c4.3,0,8.3,1.7,11.7,5.2c2.4,2.4,4.8,4.9,7.2,7.3c2.1,2.2,4.4,4.5,6.6,6.7
			c2,2,4.1,4,6.9,4.7c1.4,0.4,2.6,0.5,3.7,0.5c2.7,0,4.8-1,6.6-2.9C66.3,48,67.2,45,66.4,42z M66.4,42c-0.8-3-3.1-5.5-5.9-6.5
			c-1-0.4-2.1-0.5-3.3-0.5c-3.2,0-6.5,1.5-8.9,4l2.9,2.6c0.1-0.1,0.1-0.1,0.2-0.2c0.5-0.4,1.1-1,1.6-1.4c1.2-0.9,2.5-1.4,3.9-1.4
			c0.2,0,0.4,0,0.6,0c2.9,0.2,4.8,2,5.2,4.9c0.4,2.5-1,4.8-3.3,5.7c-0.8,0.3-1.7,0.5-2.5,0.5c-1.2,0-2.4-0.4-3.4-1
			c-1.9-1.2-3.6-2.7-5.1-4.2c-2.2-2.1-4.3-4.4-6.4-6.5c-1.7-1.7-3.4-3.5-5.1-5.2c-3.6-3.6-7.3-5.8-11.4-6.7
			c-1.7-0.4-3.3-0.6-4.9-0.6c-5.4,0-10,2.1-13.8,6.3c-2.6,2.9-4.1,6.1-4.7,9.4c-0.5,3.3,0,6.9,1.5,10.5c1.2,2.9,2.9,5.2,5,7
			c2.2,1.8,4.8,3,7.9,3.7c1.5,0.3,3,0.5,4.5,0.5c5.1,0,9.9-1.9,14.3-5.8c0.4-0.3,0.7-0.7,1.1-1c0.1-0.1,0.1-0.1,0.2-0.2l-2.6-2.7
			l-0.5,0.4c-3.6,3.3-7.1,5-10.8,5.3c-0.5,0.1-1,0.1-1.6,0.1c-7.8,0-14.3-5.7-15-13.3c-0.4-4.2,0.9-8.5,3.5-11.6
			c2.6-3,6.2-4.8,10.5-5c0.3,0,0.6,0,1,0c4.3,0,8.3,1.7,11.7,5.2c2.4,2.4,4.8,4.9,7.2,7.3c2.1,2.2,4.4,4.5,6.6,6.7
			c2,2,4.1,4,6.9,4.7c1.4,0.4,2.6,0.5,3.7,0.5c2.7,0,4.8-1,6.6-2.9C66.3,48,67.2,45,66.4,42z M27.8,45.9L27.8,45.9 M61.6,44.1
			c-0.1-2.1-1.5-3.8-3.6-4.2c-0.4-0.1-0.7-0.1-1-0.1c-1.4,0-2.7,0.6-4,1.7c0,0-0.1,0.1-0.1,0.1c0.2,0.2,0.4,0.4,0.7,0.6
			c0.9-0.7,2-1.4,3.4-1.4c0.1,0,0.3,0,0.4,0c1.8,0.2,3.2,1.6,3.2,3.4v0c0,1.8-1.3,3.2-3.2,3.4c-0.1,0-0.3,0-0.4,0
			c-1.4,0-2.5-0.7-3.4-1.4c-0.2,0.2-0.7,0.6-0.7,0.6c0,0,0.1,0.1,0.1,0.1c1.3,1.1,2.6,1.7,4,1.7c0,0,0,0,0,0c0.3,0,0.7,0,1-0.1
			c2-0.4,3.5-2.1,3.6-4.2c0,0,0-0.1,0-0.1L61.6,44.1C61.7,44.2,61.6,44.1,61.6,44.1z M57,49c0.4,0,0.7,0,1.1-0.1
			c2.2-0.4,3.8-2.3,3.9-4.6c0,0,0-0.1,0-0.1v0c0,0,0-0.1,0-0.1c-0.1-2.3-1.7-4.1-3.9-4.5c-0.4-0.1-0.7-0.1-1.1-0.1
			c-1.5,0-2.9,0.6-4.2,1.8c0,0-0.1,0.1-0.1,0.1l-0.3,0.3l1.2,1.1l0.3-0.2c0.8-0.6,1.8-1.3,3.2-1.3c0.1,0,0.3,0,0.4,0
			c1.6,0.1,2.8,1.4,2.8,3v0c0,1.6-1.2,2.8-2.8,3c-0.1,0-0.3,0-0.4,0c-1.4,0-2.4-0.7-3.2-1.3l-0.3-0.2l-1.2,1.1l0.3,0.3
			c0,0,0.1,0.1,0.1,0.1C54.2,48.4,55.6,49,57,49L57,49z M61.6,44.1c-0.1-2.1-1.5-3.8-3.6-4.2c-0.4-0.1-0.7-0.1-1-0.1
			c-1.4,0-2.7,0.6-4,1.7c0,0-0.1,0.1-0.1,0.1c0.2,0.2,0.4,0.4,0.7,0.6c0.9-0.7,2-1.4,3.4-1.4c0.1,0,0.3,0,0.4,0
			c1.8,0.2,3.2,1.6,3.2,3.4v0c0,1.8-1.3,3.2-3.2,3.4c-0.1,0-0.3,0-0.4,0c-1.4,0-2.5-0.7-3.4-1.4c-0.2,0.2-0.7,0.6-0.7,0.6
			c0,0,0.1,0.1,0.1,0.1c1.3,1.1,2.6,1.7,4,1.7c0,0,0,0,0,0c0.3,0,0.7,0,1-0.1c2-0.4,3.5-2.1,3.6-4.2c0,0,0-0.1,0-0.1L61.6,44.1
			C61.7,44.2,61.6,44.1,61.6,44.1z"/>
		<path class="st1" d="M21.1,52.1c-4.3,0-7.8-3.5-7.8-7.8s3.5-7.8,7.8-7.8s7.8,3.5,7.8,7.8S25.4,52.1,21.1,52.1z M21.1,38.7
			c-3.1,0-5.6,2.5-5.6,5.6c0,3.1,2.5,5.6,5.6,5.6s5.6-2.5,5.6-5.6C26.6,41.2,24.2,38.7,21.1,38.7z"/>
	</g>
	<g style="clip-path:url(#SVGID_00000178922214160252667100000014367611650714174901_);">
		<path class="st1" d="M102.6,63.7c-2.6,0-5-0.6-7.1-1.8c-2.1-1.2-3.7-2.9-4.9-4.9c-1.2-2.1-1.8-4.5-1.8-7.1c0-2.6,0.6-5,1.7-7.1
			c1.2-2.1,2.7-3.7,4.7-4.9c2-1.2,4.2-1.8,6.8-1.8c2.2,0,4.1,0.5,5.8,1.4c1.7,0.9,3.2,2.1,4.2,3.6V26.8c0-0.7,0.2-1.2,0.6-1.6
			c0.4-0.4,0.9-0.6,1.5-0.6c0.6,0,1.1,0.2,1.5,0.6c0.4,0.4,0.6,0.9,0.6,1.6V50c-0.1,2.6-0.7,4.9-1.9,7c-1.2,2.1-2.8,3.7-4.9,4.9
			C107.6,63.1,105.2,63.7,102.6,63.7z M102.6,59.9c1.9,0,3.5-0.4,4.9-1.3c1.4-0.9,2.6-2.1,3.4-3.6c0.8-1.5,1.3-3.2,1.3-5.1
			c0-1.9-0.4-3.6-1.3-5.1c-0.8-1.5-2-2.7-3.4-3.6c-1.4-0.9-3.1-1.3-4.9-1.3c-1.8,0-3.5,0.4-4.9,1.3c-1.5,0.9-2.6,2.1-3.5,3.6
			c-0.9,1.5-1.3,3.2-1.3,5.1c0,1.9,0.4,3.6,1.3,5.1c0.9,1.5,2,2.7,3.5,3.6C99.2,59.5,100.8,59.9,102.6,59.9z"/>
		<path class="st1" d="M137.1,63.7c-2.5,0-4.8-0.6-6.8-1.8c-2-1.2-3.6-2.9-4.7-4.9c-1.2-2.1-1.7-4.4-1.7-7.1c0-2.7,0.6-5,1.8-7.1
			c1.2-2.1,2.9-3.7,4.9-4.9c2.1-1.2,4.4-1.8,7-1.8c2.6,0,5,0.6,7,1.8c2.1,1.2,3.7,2.9,4.9,4.9c1.2,2.1,1.8,4.5,1.9,7.1l-1.7,0.8
			c0,2.5-0.6,4.7-1.7,6.6c-1.1,2-2.6,3.5-4.5,4.6C141.7,63.1,139.6,63.7,137.1,63.7z M137.7,59.9c1.9,0,3.5-0.4,4.9-1.3
			c1.4-0.9,2.6-2.1,3.4-3.6c0.8-1.5,1.3-3.2,1.3-5.1c0-1.9-0.4-3.6-1.3-5.1c-0.8-1.5-2-2.7-3.4-3.6c-1.4-0.9-3.1-1.3-4.9-1.3
			c-1.8,0-3.5,0.4-4.9,1.3c-1.5,0.9-2.6,2.1-3.5,3.6c-0.9,1.5-1.3,3.2-1.3,5.1c0,1.9,0.4,3.6,1.3,5.1c0.9,1.5,2,2.7,3.5,3.6
			C134.3,59.5,135.9,59.9,137.7,59.9z M149.4,63.4c-0.6,0-1.2-0.2-1.6-0.6c-0.4-0.4-0.6-0.9-0.6-1.5v-8.2l0.9-4.3l3.3,1v11.5
			c0,0.6-0.2,1.1-0.6,1.5C150.5,63.3,150,63.4,149.4,63.4z"/>
		<path class="st1" d="M161.1,52.7c-0.7,0-1.2-0.2-1.6-0.6c-0.4-0.4-0.6-0.9-0.6-1.5V26.8c0-0.7,0.2-1.2,0.6-1.6
			c0.4-0.4,0.9-0.6,1.6-0.6c0.6,0,1.1,0.2,1.5,0.6c0.4,0.4,0.6,0.9,0.6,1.6v23.9c0,0.6-0.2,1.1-0.6,1.5
			C162.2,52.5,161.7,52.7,161.1,52.7z M161.1,63.4c-0.7,0-1.2-0.2-1.6-0.6c-0.4-0.4-0.6-0.9-0.6-1.5v-23c0-0.7,0.2-1.2,0.6-1.6
			c0.4-0.4,0.9-0.6,1.6-0.6c0.6,0,1.1,0.2,1.5,0.6c0.4,0.4,0.6,0.9,0.6,1.6v23c0,0.6-0.2,1.1-0.6,1.5
			C162.2,63.3,161.7,63.4,161.1,63.4z M182.2,63.4c-0.6,0-1.1-0.2-1.5-0.6c-0.4-0.4-0.6-0.9-0.6-1.5V48.7c0-2-0.4-3.7-1.1-4.9
			c-0.7-1.3-1.8-2.2-3.1-2.9s-2.8-1-4.4-1c-1.6,0-3,0.3-4.2,0.9c-1.2,0.6-2.2,1.4-3,2.5c-0.7,1-1.1,2.2-1.1,3.6h-2.9
			c0.1-2.1,0.6-4,1.7-5.6c1-1.6,2.4-2.9,4.2-3.9c1.8-1,3.7-1.4,5.9-1.4c2.3,0,4.4,0.5,6.2,1.5c1.8,1,3.3,2.4,4.4,4.3
			c1.1,1.9,1.6,4.2,1.6,7v12.7c0,0.6-0.2,1.1-0.6,1.5S182.8,63.4,182.2,63.4z"/>
		<path class="st1" d="M204.5,63.7c-2.5,0-4.8-0.6-6.8-1.8c-2-1.2-3.6-2.9-4.7-4.9c-1.2-2.1-1.7-4.4-1.7-7.1c0-2.7,0.6-5,1.8-7.1
			c1.2-2.1,2.9-3.7,4.9-4.9c2.1-1.2,4.4-1.8,7-1.8c2.6,0,5,0.6,7,1.8c2.1,1.2,3.7,2.9,4.9,4.9c1.2,2.1,1.8,4.5,1.9,7.1l-1.7,0.8
			c0,2.5-0.6,4.7-1.7,6.6c-1.1,2-2.6,3.5-4.5,4.6C209.1,63.1,206.9,63.7,204.5,63.7z M205.1,59.9c1.9,0,3.5-0.4,4.9-1.3
			c1.4-0.9,2.6-2.1,3.4-3.6c0.8-1.5,1.3-3.2,1.3-5.1c0-1.9-0.4-3.6-1.3-5.1c-0.8-1.5-2-2.7-3.4-3.6c-1.4-0.9-3.1-1.3-4.9-1.3
			c-1.8,0-3.5,0.4-4.9,1.3c-1.5,0.9-2.6,2.1-3.5,3.6c-0.9,1.5-1.3,3.2-1.3,5.1c0,1.9,0.4,3.6,1.3,5.1c0.9,1.5,2,2.7,3.5,3.6
			C201.6,59.5,203.3,59.9,205.1,59.9z M216.8,63.4c-0.6,0-1.2-0.2-1.6-0.6c-0.4-0.4-0.6-0.9-0.6-1.5v-8.2l0.9-4.3l3.3,1v11.5
			c0,0.6-0.2,1.1-0.6,1.5C217.9,63.3,217.4,63.4,216.8,63.4z"/>
		<path class="st1" d="M240,63.7c-2.6,0-4.9-0.6-7-1.8c-2.1-1.2-3.7-2.8-4.9-4.9c-1.2-2.1-1.8-4.4-1.9-7V26.8c0-0.7,0.2-1.2,0.6-1.6
			c0.4-0.4,0.9-0.6,1.6-0.6c0.6,0,1.1,0.2,1.5,0.6c0.4,0.4,0.6,0.9,0.6,1.6V41c1.1-1.5,2.5-2.7,4.3-3.6c1.8-0.9,3.7-1.4,5.9-1.4
			c2.5,0,4.8,0.6,6.8,1.8c2,1.2,3.6,2.9,4.7,4.9c1.1,2.1,1.7,4.4,1.7,7.1c0,2.7-0.6,5-1.8,7.1c-1.2,2.1-2.9,3.7-4.9,4.9
			C245,63.1,242.7,63.7,240,63.7z M240,59.9c1.9,0,3.5-0.4,5-1.3c1.5-0.9,2.6-2.1,3.5-3.6c0.8-1.5,1.3-3.2,1.3-5.1
			c0-1.9-0.4-3.6-1.3-5.1c-0.8-1.5-2-2.7-3.5-3.6c-1.5-0.9-3.1-1.3-5-1.3c-1.8,0-3.4,0.4-4.9,1.3c-1.5,0.9-2.6,2.1-3.5,3.6
			c-0.8,1.5-1.2,3.2-1.2,5.1c0,1.9,0.4,3.6,1.2,5.1c0.8,1.5,2,2.7,3.5,3.6C236.6,59.5,238.2,59.9,240,59.9z"/>
	</g>
</g>
</svg>
